<?xml version="1.0" encoding="UTF-8" standalone="no"?>
<svg width="322px" height="98px" viewBox="0 0 322 98" version="1.1" xmlns="http://www.w3.org/2000/svg" xmlns:xlink="http://www.w3.org/1999/xlink" xmlns:sketch="http://www.bohemiancoding.com/sketch/ns">
    <!-- Generator: Sketch 3.3.3 (12072) - http://www.bohemiancoding.com/sketch -->
    <title>Ringotel Copy 2</title>
    <desc>Created with Sketch.</desc>
    <defs>
        <path d="M92.1044241,25.4797252 C82.7772236,16.9365524 70.1348542,12.0928624 56.5686604,13.0415031 C30.2177262,14.8841399 10.3598519,37.8829275 12.2148568,64.4107329 C14.0698617,90.9385383 36.935293,110.949821 63.2862272,109.107184 C89.6371614,107.264548 109.495036,84.2657601 107.640031,57.7379547 L116.489496,12.8733304 L92.1044241,25.4797252 Z" id="path-1"></path>
    </defs>
    <g id="logos" stroke="none" stroke-width="1" fill="none" fill-rule="evenodd" sketch:type="MSPage">
        <g id="Artboard-65" sketch:type="MSArtboardGroup" transform="translate(-63.000000, -297.000000)">
            <g id="Ringotel-Copy-2" sketch:type="MSLayerGroup" transform="translate(63.000000, 286.000000)">
                <g id="Oval-208-Copy-2-+-Path" transform="translate(194.000000, 0.000000)">
                    <mask id="mask-2" sketch:name="Mask" fill="white">
                        <use xlink:href="#path-1"></use>
                    </mask>
                    <use id="Mask" fill="#52D6FF" sketch:type="MSShapeGroup" transform="translate(64.292140, 61.049107) rotate(16.000000) translate(-64.292140, -61.049107) " xlink:href="#path-1"></use>
                    <path d="M46.781984,50.6465611 L46.781984,42.0194778 L11.9761651,42.0194778 L11.9761651,50.6465611 L23.7565961,50.6465611 L23.7565961,83.0724949 L34.9420559,83.0724949 L34.9420559,50.6465611 L46.781984,50.6465611 Z M78.0408775,74.5644059 L62.6311218,74.5644059 C60.9652023,74.5644059 60.0727454,73.671949 60.0727454,72.0060294 L60.0727454,65.7588312 L75.8394839,65.7588312 L75.8394839,58.0837019 L60.0727454,58.0837019 L60.0727454,53.0859433 C60.0727454,51.4200238 60.9652023,50.5275669 62.6311218,50.5275669 L78.0408775,50.5275669 L78.5763517,42.4954548 C72.7456333,41.8409864 65.0110069,41.8409864 58.2283345,41.8409864 C52.6951018,41.8409864 48.8872857,45.3513169 48.8872857,50.6465611 L48.8872857,74.4454116 C48.8872857,79.7406558 52.6356046,83.2509863 58.2283345,83.2509863 C65.0110069,83.2509863 72.7456333,83.2509863 78.5763517,82.5965179 L78.0408775,74.5644059 Z M92.1760499,42.0194778 L80.9905901,42.0194778 L80.9905901,74.2074231 C80.9905901,79.5621645 84.3224292,83.2509863 90.5696275,83.2509863 C96.93582,83.2509863 103.599498,83.2509863 109.430216,82.5370208 L108.894742,74.147926 L94.9724148,74.147926 C93.0685068,74.147926 92.1760499,73.2554691 92.1760499,71.5895495 L92.1760499,42.0194778 Z" id="Path" fill="#FFFFFF" sketch:type="MSShapeGroup" mask="url(#mask-2)"></path>
                </g>
                <path d="M34.6833675,82.2214781 L31.3506935,69.7678014 C30.415206,65.148832 27.3164038,63.9210048 25.1530891,63.570197 L25.1530891,63.2193892 C31.1752896,62.5762415 33.1047325,58.6588878 33.1047325,53.4552389 C33.1047325,44.1003643 28.3103592,41.2939019 17.0260418,41.2939019 C9.36673828,41.2939019 5.85866033,41.3523699 0.713479326,41.8785816 L0.713479326,82.2214781 L11.530053,82.2214781 L11.530053,67.019807 L16.4998301,67.019807 C18.7216128,67.019807 19.7155683,67.7214225 20.3002479,70.0601412 L23.1651782,82.2214781 L34.6833675,82.2214781 Z M11.530053,59.0096956 L11.530053,49.3040133 L16.79217,49.3040133 C20.9433955,49.3040133 22.0542869,50.2979687 22.0542869,54.1568544 C22.0542869,58.0157402 20.9433955,59.0096956 16.79217,59.0096956 L11.530053,59.0096956 Z M50.2943144,82.2214781 L50.2943144,41.8785816 L39.4192728,41.8785816 L39.4192728,82.2214781 L50.2943144,82.2214781 Z M93.0928655,41.8785816 L82.9194394,41.8785816 L82.9194394,61.4068822 C82.9779074,63.8040688 83.1533113,66.0843195 83.3871832,68.4815061 L82.9194394,68.4815061 C81.983952,66.0258515 80.9315286,63.6286649 79.8791052,61.75769 L70.6411666,45.0943197 C69.4718073,42.989473 68.6532557,41.8785816 66.3730051,41.8785816 L61.2278241,41.8785816 C58.7137015,41.8785816 57.3689383,43.2233448 57.3689383,45.7374674 L57.3689383,82.2214781 L67.6008324,82.2214781 L67.6008324,61.9915619 C67.6008324,59.7697792 67.4254285,57.3725926 67.1330886,55.0923419 L67.6008324,55.0923419 C68.24398,57.3141246 69.2379354,59.8282471 70.2318908,61.6992221 L79.8206372,79.00574 C80.9315286,81.1105867 81.8085481,82.2214781 84.0887988,82.2214781 L89.2924477,82.2214781 C91.8065703,82.2214781 93.0928655,80.8767149 93.0928655,78.3625923 L93.0928655,41.8785816 Z M132.441807,59.0096956 L121.917573,59.0096956 L121.917573,72.6327317 C120.397406,73.1589434 118.467963,73.6266871 116.24618,73.6266871 C111.802615,73.6266871 110.399383,71.1710325 110.399383,62.1084978 C110.399383,52.2858795 112.094954,50.4149046 117.590943,50.4149046 C122.151445,50.4149046 125.834926,50.4733726 130.04462,50.5903085 L130.921639,42.6386652 C126.828882,41.5277738 123.086932,41.0600301 117.474007,41.0600301 C103.792503,41.0600301 98.8811941,46.322147 98.8811941,61.9915619 C98.8811941,77.0178291 102.857016,83.0400296 112.036486,83.0400296 C117.532475,83.0400296 121.449829,80.3505032 123.43774,78.1287205 L124.373227,82.2214781 L132.441807,82.2214781 L132.441807,59.0096956 Z" id="Ring-----Tel" fill="#4A4A4A" sketch:type="MSShapeGroup"></path>
                <g id="Oval-208-Copy-7-+-emblem-4-copy-3" transform="translate(131.000000, 19.000000)" sketch:type="MSShapeGroup">
                    <path d="M25.7369467,23.1711598 C31.0889641,17.6673948 38.7138032,14.4717496 46.940067,15.046986 C61.8231922,16.0877155 73.0390113,29.0774888 71.9913002,44.0604566 C70.943589,59.0434244 58.0290944,70.3458417 43.1459692,69.3051122 C28.7185193,68.2962467 17.7372501,56.058822 18.0327437,41.6619472 L13.0965581,16.6364525 L25.7369467,23.1711598 Z M23.2739066,14.7637957 C30.4368744,8.95032881 39.8349063,5.94492641 49.6804766,7.15381044 C68.9868418,9.52433401 82.7031555,27.2019755 80.3167206,46.6379278 C77.9302857,66.0738801 60.3447967,79.9081435 41.0384315,77.5376199 C21.7320663,75.1670963 8.01575265,57.4894548 10.4021875,38.0535025 C10.4971237,37.2803091 10.6161136,36.5159807 10.7583086,35.761185 L4.7252553,5.17466603 L23.2739066,14.7637957 L23.2739066,14.7637957 Z" id="Oval-208-Copy-7" fill="#4A4A4A" transform="translate(42.655835, 41.488336) rotate(-7.000000) translate(-42.655835, -41.488336) "></path>
                    <path d="M48.6141265,49.8897302 L57.7124823,57.0844246 C58.2985994,56.5225186 59.1550072,54.3056191 58.5912989,53.8496881 L51.7731958,48.2849739 C51.2092387,47.8286114 49.1998652,49.3277439 48.6141265,49.8897302 L48.6141265,49.8897302 L48.6141265,49.8897302 Z M55.3028032,59.8358507 C56.1755229,59.3707877 56.6119451,58.8849865 56.7620759,58.3644987 L47.3500371,50.857844 C44.6851433,52.2779375 41.0664067,48.7118269 39.7887616,46.4959617 L38.5397243,44.3297119 C37.262328,42.1142782 36.033924,37.2738208 38.6988177,35.8537272 L37.0655912,24.2128242 C36.5616594,24.0989715 35.9444435,24.2101749 35.1356005,24.6414808 L31.4684506,26.5956659 C28.8035569,28.0157594 29.6862251,35.9766445 29.8018144,39.0212831 C29.8018144,39.0212831 30.218544,44.1205609 32.648209,48.3344151 C35.254993,52.8554531 39.887021,56.5129905 39.887021,56.5129905 C42.1767466,58.2941509 49.0672769,63.1586963 51.7321707,61.7386028 L55.3028032,59.8358507 L55.3028032,59.8358507 Z M38.7150252,24.1746288 C39.5212973,23.9945454 41.9307305,24.4711129 42.0342037,25.1722984 L43.3299926,33.679795 C43.4337145,34.3814119 41.0464705,35.2251902 40.240328,35.4049225 L38.7150252,24.1746288 L38.7150252,24.1746288 Z" id="emblem-4-copy-3" fill="#616161"></path>
                </g>
            </g>
        </g>
    </g>
</svg>