<?xml version="1.0" encoding="UTF-8" standalone="no"?>
<svg width="322px" height="97px" viewBox="0 0 322 97" version="1.1" xmlns="http://www.w3.org/2000/svg" xmlns:xlink="http://www.w3.org/1999/xlink" xmlns:sketch="http://www.bohemiancoding.com/sketch/ns">
    <!-- Generator: Sketch 3.3.3 (12072) - http://www.bohemiancoding.com/sketch -->
    <title>Ringotel Copy 5</title>
    <desc>Created with Sketch.</desc>
    <defs>
        <path d="M93.8635369,63.147926 C94.3300803,61.6216802 94.7217464,60.069864 95.0358762,58.4982296 L115.746503,18.1271195 L88.6948622,23.5510781 L88.6948622,23.5510781 C76.9620183,4.5786018 53.2745024,-4.25716902 31.6212534,3.62396911 C18.2666164,8.48465945 8.406565,18.7138461 3.56282295,31.0194778 L3.56282295,31.0194778 L34.781984,31.0194778 L34.781984,39.6465611 L22.9420559,39.6465611 L22.9420559,72.0724949 L11.7565961,72.0724949 L11.7565961,39.6465611 L1.06426428,39.6465611 C-0.515751366,47.9186793 0.0493868081,56.7239007 3.1449196,65.2288072 C12.2401189,90.2176618 39.7356393,103.151175 64.5578835,94.1166166 C75.9134386,89.9835325 84.7423254,81.968898 90.1089988,72.0966429 C86.3183062,72.2509863 82.39039,72.2509863 78.5696275,72.2509863 C72.3224292,72.2509863 68.9905901,68.5621645 68.9905901,63.2074231 L68.9905901,31.0194778 L80.1760499,31.0194778 L80.1760499,60.5895495 C80.1760499,62.2554691 81.0685068,63.147926 82.9724148,63.147926 L93.8635369,63.147926 Z M66.0408775,63.5644059 L50.6311218,63.5644059 C48.9652023,63.5644059 48.0727454,62.671949 48.0727454,61.0060294 L48.0727454,54.7588312 L63.8394839,54.7588312 L63.8394839,47.0837019 L48.0727454,47.0837019 L48.0727454,42.0859433 C48.0727454,40.4200238 48.9652023,39.5275669 50.6311218,39.5275669 L66.0408775,39.5275669 L66.5763517,31.4954548 C60.7456333,30.8409864 53.0110069,30.8409864 46.2283345,30.8409864 C40.6951018,30.8409864 36.8872857,34.3513169 36.8872857,39.6465611 L36.8872857,63.4454116 C36.8872857,68.7406558 40.6356046,72.2509863 46.2283345,72.2509863 C53.0110069,72.2509863 60.7456333,72.2509863 66.5763517,71.5965179 L66.0408775,63.5644059 Z" id="path-1"></path>
    </defs>
    <g id="logos" stroke="none" stroke-width="1" fill="none" fill-rule="evenodd" sketch:type="MSPage">
        <g id="Artboard-65" sketch:type="MSArtboardGroup" transform="translate(-573.000000, -297.000000)">
            <g id="Ringotel-Copy-5" sketch:type="MSLayerGroup" transform="translate(573.000000, 297.000000)">
                <g id="Oval-208-Copy-2-+-Path" transform="translate(206.000000, 0.000000)">
                    <mask id="mask-2" sketch:name="Mask" fill="white">
                        <use xlink:href="#path-1"></use>
                    </mask>
                    <use id="Mask" fill="#FFFFFF" sketch:type="MSShapeGroup" xlink:href="#path-1"></use>
                </g>
                <path d="M34.6833675,71.2214781 L31.3506935,58.7678014 C30.415206,54.148832 27.3164038,52.9210048 25.1530891,52.570197 L25.1530891,52.2193892 C31.1752896,51.5762415 33.1047325,47.6588878 33.1047325,42.4552389 C33.1047325,33.1003643 28.3103592,30.2939019 17.0260418,30.2939019 C9.36673828,30.2939019 5.85866033,30.3523699 0.713479326,30.8785816 L0.713479326,71.2214781 L11.530053,71.2214781 L11.530053,56.019807 L16.4998301,56.019807 C18.7216128,56.019807 19.7155683,56.7214225 20.3002479,59.0601412 L23.1651782,71.2214781 L34.6833675,71.2214781 Z M11.530053,48.0096956 L11.530053,38.3040133 L16.79217,38.3040133 C20.9433955,38.3040133 22.0542869,39.2979687 22.0542869,43.1568544 C22.0542869,47.0157402 20.9433955,48.0096956 16.79217,48.0096956 L11.530053,48.0096956 Z M50.2943144,71.2214781 L50.2943144,30.8785816 L39.4192728,30.8785816 L39.4192728,71.2214781 L50.2943144,71.2214781 Z M93.0928655,30.8785816 L82.9194394,30.8785816 L82.9194394,50.4068822 C82.9779074,52.8040688 83.1533113,55.0843195 83.3871832,57.4815061 L82.9194394,57.4815061 C81.983952,55.0258515 80.9315286,52.6286649 79.8791052,50.75769 L70.6411666,34.0943197 C69.4718073,31.989473 68.6532557,30.8785816 66.3730051,30.8785816 L61.2278241,30.8785816 C58.7137015,30.8785816 57.3689383,32.2233448 57.3689383,34.7374674 L57.3689383,71.2214781 L67.6008324,71.2214781 L67.6008324,50.9915619 C67.6008324,48.7697792 67.4254285,46.3725926 67.1330886,44.0923419 L67.6008324,44.0923419 C68.24398,46.3141246 69.2379354,48.8282471 70.2318908,50.6992221 L79.8206372,68.00574 C80.9315286,70.1105867 81.8085481,71.2214781 84.0887988,71.2214781 L89.2924477,71.2214781 C91.8065703,71.2214781 93.0928655,69.8767149 93.0928655,67.3625923 L93.0928655,30.8785816 Z M132.441807,48.0096956 L121.917573,48.0096956 L121.917573,61.6327317 C120.397406,62.1589434 118.467963,62.6266871 116.24618,62.6266871 C111.802615,62.6266871 110.399383,60.1710325 110.399383,51.1084978 C110.399383,41.2858795 112.094954,39.4149046 117.590943,39.4149046 C122.151445,39.4149046 125.834926,39.4733726 130.04462,39.5903085 L130.921639,31.6386652 C126.828882,30.5277738 123.086932,30.0600301 117.474007,30.0600301 C103.792503,30.0600301 98.8811941,35.322147 98.8811941,50.9915619 C98.8811941,66.0178291 102.857016,72.0400296 112.036486,72.0400296 C117.532475,72.0400296 121.449829,69.3505032 123.43774,67.1287205 L124.373227,71.2214781 L132.441807,71.2214781 L132.441807,48.0096956 Z" id="Ring-----Tel" fill="#FFFFFF" sketch:type="MSShapeGroup"></path>
                <g id="Oval-208-Copy-7-+-emblem-4-copy-3" transform="translate(131.000000, 8.000000)" fill="#FFFFFF" sketch:type="MSShapeGroup">
                    <path d="M25.7369467,23.1711598 C31.0889641,17.6673948 38.7138032,14.4717496 46.940067,15.046986 C61.8231922,16.0877155 73.0390113,29.0774888 71.9913002,44.0604566 C70.943589,59.0434244 58.0290944,70.3458417 43.1459692,69.3051122 C28.7185193,68.2962467 17.7372501,56.058822 18.0327437,41.6619472 L13.0965581,16.6364525 L25.7369467,23.1711598 Z M23.2739066,14.7637957 C30.4368744,8.95032881 39.8349063,5.94492641 49.6804766,7.15381044 C68.9868418,9.52433401 82.7031555,27.2019755 80.3167206,46.6379278 C77.9302857,66.0738801 60.3447967,79.9081435 41.0384315,77.5376199 C21.7320663,75.1670963 8.01575265,57.4894548 10.4021875,38.0535025 C10.4971237,37.2803091 10.6161136,36.5159807 10.7583086,35.761185 L4.7252553,5.17466603 L23.2739066,14.7637957 L23.2739066,14.7637957 Z" id="Oval-208-Copy-7" transform="translate(42.655835, 41.488336) rotate(-7.000000) translate(-42.655835, -41.488336) "></path>
                    <path d="M48.6141265,49.8897302 L57.7124823,57.0844246 C58.2985994,56.5225186 59.1550072,54.3056191 58.5912989,53.8496881 L51.7731958,48.2849739 C51.2092387,47.8286114 49.1998652,49.3277439 48.6141265,49.8897302 L48.6141265,49.8897302 L48.6141265,49.8897302 Z M55.3028032,59.8358507 C56.1755229,59.3707877 56.6119451,58.8849865 56.7620759,58.3644987 L47.3500371,50.857844 C44.6851433,52.2779375 41.0664067,48.7118269 39.7887616,46.4959617 L38.5397243,44.3297119 C37.262328,42.1142782 36.033924,37.2738208 38.6988177,35.8537272 L37.0655912,24.2128242 C36.5616594,24.0989715 35.9444435,24.2101749 35.1356005,24.6414808 L31.4684506,26.5956659 C28.8035569,28.0157594 29.6862251,35.9766445 29.8018144,39.0212831 C29.8018144,39.0212831 30.218544,44.1205609 32.648209,48.3344151 C35.254993,52.8554531 39.887021,56.5129905 39.887021,56.5129905 C42.1767466,58.2941509 49.0672769,63.1586963 51.7321707,61.7386028 L55.3028032,59.8358507 L55.3028032,59.8358507 Z M38.7150252,24.1746288 C39.5212973,23.9945454 41.9307305,24.4711129 42.0342037,25.1722984 L43.3299926,33.679795 C43.4337145,34.3814119 41.0464705,35.2251902 40.240328,35.4049225 L38.7150252,24.1746288 L38.7150252,24.1746288 Z" id="emblem-4-copy-3"></path>
                </g>
            </g>
        </g>
    </g>
</svg>